<?xml version="1.0" encoding="UTF-8"?>
<svg version="1.1" xmlns="http://www.w3.org/2000/svg" width="124" height="108">
<path d="M0 0 C6.37122152 5.36982224 9.23550837 11.19977055 10.15234375 19.3203125 C9.93152497 24.89598659 7.86125166 31.09399692 4.078125 35.23828125 C3.62824219 35.63660156 3.17835937 36.03492188 2.71484375 36.4453125 C4.19984375 36.9403125 4.19984375 36.9403125 5.71484375 37.4453125 C5.71484375 38.7653125 5.71484375 40.0853125 5.71484375 41.4453125 C14.95137745 41.40958123 19.01215608 39.19223305 27.71484375 34.4453125 C27.71484375 45.3353125 27.71484375 56.2253125 27.71484375 67.4453125 C17.71484375 62.4453125 17.71484375 62.4453125 16.71484375 61.4453125 C14.86592429 61.21167369 13.00996344 61.03227615 11.15234375 60.8828125 C9.35796875 60.7384375 7.56359375 60.5940625 5.71484375 60.4453125 C5.71484375 66.0553125 5.71484375 71.6653125 5.71484375 77.4453125 C-7.15515625 77.4453125 -20.02515625 77.4453125 -33.28515625 77.4453125 C-33.28515625 73.8153125 -33.28515625 70.1853125 -33.28515625 66.4453125 C-28.33515625 66.4453125 -23.38515625 66.4453125 -18.28515625 66.4453125 C-18.28515625 64.7953125 -18.28515625 63.1453125 -18.28515625 61.4453125 C-23.23515625 61.4453125 -28.18515625 61.4453125 -33.28515625 61.4453125 C-33.28515625 58.8053125 -33.28515625 56.1653125 -33.28515625 53.4453125 C-28.00515625 53.4453125 -22.72515625 53.4453125 -17.28515625 53.4453125 C-17.28515625 51.7953125 -17.28515625 50.1453125 -17.28515625 48.4453125 C-24.87515625 48.4453125 -32.46515625 48.4453125 -40.28515625 48.4453125 C-40.28515625 58.0153125 -40.28515625 67.5853125 -40.28515625 77.4453125 C-46.22515625 77.9403125 -46.22515625 77.9403125 -52.28515625 78.4453125 C-52.94515625 80.7553125 -53.60515625 83.0653125 -54.28515625 85.4453125 C-55.35894531 85.69925781 -56.43273437 85.95320313 -57.5390625 86.21484375 C-58.97533823 86.5621784 -60.41153181 86.90985283 -61.84765625 87.2578125 C-62.55212891 87.42345703 -63.25660156 87.58910156 -63.98242188 87.75976562 C-67.46994218 88.6115563 -70.72613959 89.56329078 -74.00390625 91.0390625 C-76.93569244 92.2955423 -79.08084591 92.89113478 -82.22265625 93.1328125 C-82.99480469 93.19855469 -83.76695313 93.26429687 -84.5625 93.33203125 C-85.41521484 93.38810547 -85.41521484 93.38810547 -86.28515625 93.4453125 C-86.28515625 90.8053125 -86.28515625 88.1653125 -86.28515625 85.4453125 C-84.20351607 85.08132628 -82.11975063 84.72947963 -80.03515625 84.3828125 C-78.875 84.18558594 -77.71484375 83.98835938 -76.51953125 83.78515625 C-73.50869167 83.46879992 -72.11113081 83.73881886 -69.28515625 84.4453125 C-67.02599511 84.20793687 -64.77462415 83.88852204 -62.53515625 83.5078125 C-61.3646875 83.31316406 -60.19421875 83.11851563 -58.98828125 82.91796875 C-58.09625 82.76199219 -57.20421875 82.60601562 -56.28515625 82.4453125 C-56.28515625 80.7953125 -56.28515625 79.1453125 -56.28515625 77.4453125 C-58.26515625 77.4453125 -60.24515625 77.4453125 -62.28515625 77.4453125 C-62.28515625 69.5253125 -62.28515625 61.6053125 -62.28515625 53.4453125 C-64.59515625 54.4353125 -66.90515625 55.4253125 -69.28515625 56.4453125 C-70.12075424 54.63385544 -70.95357674 52.82111783 -71.78515625 51.0078125 C-72.24921875 49.99847656 -72.71328125 48.98914062 -73.19140625 47.94921875 C-74.28515625 45.4453125 -74.28515625 45.4453125 -74.28515625 44.4453125 C-65.71372768 45.4453125 -65.71372768 45.4453125 -62.28515625 46.4453125 C-62.28515625 45.7853125 -62.28515625 45.1253125 -62.28515625 44.4453125 C-63.33703125 44.3525 -63.33703125 44.3525 -64.41015625 44.2578125 C-69.38582505 42.85164523 -72.33320853 39.88964697 -75.09765625 35.6953125 C-77.45299247 29.24912915 -78.11736383 23.68357019 -75.29296875 17.296875 C-72.69886276 12.53095935 -69.66320003 8.83720851 -64.3671875 6.921875 C-58.12600035 5.49331059 -52.35409066 5.36312136 -46.78515625 8.7578125 C-44.88450705 10.09873662 -43.29915053 11.43066653 -41.69140625 13.11328125 C-40.36598241 14.67454207 -40.36598241 14.67454207 -38.28515625 14.4453125 C-38.05441406 13.85363281 -37.82367188 13.26195313 -37.5859375 12.65234375 C-34.26372018 4.60286067 -30.03120797 0.31833836 -22.28515625 -3.5546875 C-14.44956136 -5.58091335 -6.62914198 -4.74478464 0 0 Z M-22.28515625 10.4453125 C-22.86265625 10.8371875 -23.44015625 11.2290625 -24.03515625 11.6328125 C-26.1011402 14.62848923 -26.3895081 17.89734956 -26.28515625 21.4453125 C-24.5199562 26.01406556 -21.6401572 28.30889694 -17.28515625 30.4453125 C-12.85720533 30.88810759 -10.00804167 29.93748981 -6.34765625 27.4453125 C-3.62807733 23.48956135 -2.99924708 20.21046538 -3.28515625 15.4453125 C-4.63982851 11.77972875 -5.85488249 10.71657204 -9.16015625 8.6328125 C-14.65900174 6.54325121 -17.49848954 7.04425984 -22.28515625 10.4453125 Z M-66.28515625 22.4453125 C-66.35416036 26.44755085 -65.91618668 28.5571956 -63.59765625 31.8203125 C-60.69636708 33.85905624 -58.83020636 34.37296454 -55.28515625 34.4453125 C-51.75609558 32.84119402 -50.45742717 31.70371888 -48.28515625 28.4453125 C-47.72469997 24.12179262 -47.80655045 22.14826477 -50.28515625 18.5078125 C-53.60099316 16.22817462 -55.39418336 15.62863788 -59.34375 15.8984375 C-63.10354392 16.95753438 -64.43911663 19.17008092 -66.28515625 22.4453125 Z M-37.28515625 31.4453125 C-39.71229384 34.06382493 -39.71229384 34.06382493 -40.28515625 37.4453125 C-37.31515625 37.4453125 -34.34515625 37.4453125 -31.28515625 37.4453125 C-31.94515625 36.1253125 -32.60515625 34.8053125 -33.28515625 33.4453125 C-33.61515625 32.7853125 -33.94515625 32.1253125 -34.28515625 31.4453125 C-35.27515625 31.4453125 -36.26515625 31.4453125 -37.28515625 31.4453125 Z M-1.28515625 69.4453125 C-1.28515625 70.7653125 -1.28515625 72.0853125 -1.28515625 73.4453125 C-0.62515625 73.1153125 0.03484375 72.7853125 0.71484375 72.4453125 C0.38484375 71.4553125 0.05484375 70.4653125 -0.28515625 69.4453125 C-0.61515625 69.4453125 -0.94515625 69.4453125 -1.28515625 69.4453125 Z " fill="#FB6104" transform="translate(91.28515625,8.5546875)"/>
<path d="M0 0 C0.99 0 1.98 0 3 0 C2.67 2.64 2.34 5.28 2 8 C0.92621094 8.25394531 -0.14757812 8.50789063 -1.25390625 8.76953125 C-2.69018198 9.1168659 -4.12637556 9.46454033 -5.5625 9.8125 C-6.26697266 9.97814453 -6.97144531 10.14378906 -7.69726562 10.31445312 C-11.18478593 11.1662438 -14.44098334 12.11797828 -17.71875 13.59375 C-20.65053619 14.8502298 -22.79568966 15.44582228 -25.9375 15.6875 C-27.09572266 15.78611328 -27.09572266 15.78611328 -28.27734375 15.88671875 C-28.84582031 15.92410156 -29.41429687 15.96148437 -30 16 C-30 13.36 -30 10.72 -30 8 C-27.91835982 7.63601378 -25.83459438 7.28416713 -23.75 6.9375 C-22.00976562 6.64166016 -22.00976562 6.64166016 -20.234375 6.33984375 C-17.22353542 6.02348742 -15.82597456 6.29350636 -13 7 C-10.74083886 6.76262437 -8.4894679 6.44320954 -6.25 6.0625 C-5.07953125 5.86785156 -3.9090625 5.67320313 -2.703125 5.47265625 C-1.81109375 5.31667969 -0.9190625 5.16070312 0 5 C0 3.35 0 1.7 0 0 Z " fill="#F26611" transform="translate(35,86)"/>
<path d="M0 0 C8.57142857 1 8.57142857 1 12 2 C12.33 1.34 12.66 0.68 13 0 C13.66 0.33 14.32 0.66 15 1 C14.67 2.32 14.34 3.64 14 5 C11.69 5 9.38 5 7 5 C6.34 6.65 5.68 8.3 5 10 C2.35534962 6.8745041 1.15585285 3.91211733 0 0 Z " fill="#F66511" transform="translate(17,53)"/>
<path d="M0 0 C0.99 0 1.98 0 3 0 C2.67 2.64 2.34 5.28 2 8 C-1.63 8.66 -5.26 9.32 -9 10 C-9 9.34 -9 8.68 -9 8 C-10.32 7.67 -11.64 7.34 -13 7 C-8.71 6.34 -4.42 5.68 0 5 C0 3.35 0 1.7 0 0 Z " fill="#EA7024" transform="translate(35,86)"/>
<path d="M0 0 C0.66 0.33 1.32 0.66 2 1 C2 1.66 2 2.32 2 3 C2.99 3.33 3.98 3.66 5 4 C4.67 4.99 4.34 5.98 4 7 C3.81050404 9.83401739 3.68352559 12.6656975 3.57421875 15.50390625 C3 18 3 18 0.95703125 19.33984375 C0.31121094 19.55769531 -0.33460937 19.77554688 -1 20 C-0.67 19.29875 -0.34 18.5975 0 17.875 C1.45980797 13.67805209 1.41730887 10.44453072 0.1875 6.1875 C-0.85789795 3.66798742 -0.85789795 3.66798742 -4 3 C-2.68 2.67 -1.36 2.34 0 2 C0 1.34 0 0.68 0 0 Z " fill="#F16815" transform="translate(86,15)"/>
<path d="M0 0 C1.91015625 1.10546875 1.91015625 1.10546875 4.72265625 3.10546875 C3.73265625 3.60046875 3.73265625 3.60046875 2.72265625 4.10546875 C2.06265625 3.77546875 1.40265625 3.44546875 0.72265625 3.10546875 C-3.11194172 1.82726943 -5.94424139 2.42497481 -9.875 3.109375 C-12.9225329 3.10441966 -14.05877559 2.10884092 -16.27734375 0.10546875 C-11.14367908 -1.60575281 -5.10429794 -2.00494722 0 0 Z " fill="#EF6717" transform="translate(42.27734375,15.89453125)"/>
<path d="M0 0 C5.28 0 10.56 0 16 0 C12 3 12 3 10 3 C10 2.34 10 1.68 10 1 C7.03 1 4.06 1 1 1 C1 2.98 1 4.96 1 7 C5.29 7 9.58 7 14 7 C14 7.33 14 7.66 14 8 C9.38 8 4.76 8 0 8 C0 5.36 0 2.72 0 0 Z " fill="#E66E26" transform="translate(58,62)"/>
<path d="M0 0 C2.97 0 5.94 0 9 0 C9 0.66 9 1.32 9 2 C7.73581754 2.69965443 6.46334598 3.38434763 5.1875 4.0625 C4.47980469 4.44535156 3.77210937 4.82820313 3.04296875 5.22265625 C1 6 1 6 -2 5 C-1.34 3.35 -0.68 1.7 0 0 Z " fill="#F3650B" transform="translate(17,94)"/>
<path d="M0 0 C1.65 0 3.3 0 5 0 C5 1.65 5 3.3 5 5 C5.66 5.33 6.32 5.66 7 6 C6.01 7.32 5.02 8.64 4 10 C2.68 6.7 1.36 3.4 0 0 Z " fill="#EC6B18" transform="translate(17,53)"/>
<path d="M0 0 C3.13269705 3.13269705 3.05494397 5.97328423 3.0625 10.25 C3.041875 11.4875 3.02125 12.725 3 14 C-0.2102122 10.7897878 0.01025241 7.62539686 -0.0625 3.1875 C-0.041875 2.135625 -0.02125 1.08375 0 0 Z " fill="#E36A24" transform="translate(98,18)"/>
<path d="M0 0 C-0.33 0.99 -0.66 1.98 -1 3 C-0.34 3.66 0.32 4.32 1 5 C-1.3125 5.625 -1.3125 5.625 -4 6 C-4.99 5.34 -5.98 4.68 -7 4 C-2.25 0 -2.25 0 0 0 Z " fill="#ED6716" transform="translate(26,17)"/>
<path d="M0 0 C0 0.99 0 1.98 0 3 C-1.98 3.33 -3.96 3.66 -6 4 C-6 3.34 -6 2.68 -6 2 C-7.32 1.67 -8.64 1.34 -10 1 C-6.59437148 0.22157062 -3.49234244 -0.09978121 0 0 Z " fill="#EE6F18" transform="translate(32,92)"/>
<path d="M0 0 C0.79921875 0.01804687 1.5984375 0.03609375 2.421875 0.0546875 C3.02515625 0.07789062 3.6284375 0.10109375 4.25 0.125 C4.25 0.455 4.25 0.785 4.25 1.125 C2.4246875 1.2178125 2.4246875 1.2178125 0.5625 1.3125 C-3.90849852 1.83663126 -5.88301658 3.63086395 -8.75 7.125 C-8.75 5.475 -8.75 3.825 -8.75 2.125 C-5.68753253 0.34090198 -3.52920727 -0.10380021 0 0 Z " fill="#E66D20" transform="translate(33.75,23.875)"/>
<path d="M0 0 C-0.7425 0.391875 -1.485 0.78375 -2.25 1.1875 C-5.19783071 3.13038842 -6.93098611 5.16468467 -9 8 C-8.75 4.625 -8.75 4.625 -8 1 C-5.20799413 -1.31062555 -3.32874667 -1.1888381 0 0 Z " fill="#E56F20" transform="translate(74,17)"/>
<path d="M0 0 C-0.33 1.32 -0.66 2.64 -1 4 C-5.29 3.34 -9.58 2.68 -14 2 C-14 1.67 -14 1.34 -14 1 C-12.04175306 0.83232136 -10.08339945 0.66588795 -8.125 0.5 C-6.48917969 0.36078125 -6.48917969 0.36078125 -4.8203125 0.21875 C-3.21670436 0.09437042 -1.60842449 0 0 0 Z " fill="#EC6A16" transform="translate(112,67)"/>
<path d="M0 0 C1.98 0.495 1.98 0.495 4 1 C3.67 2.32 3.34 3.64 3 5 C1.68 4.67 0.36 4.34 -1 4 C-0.67 2.68 -0.34 1.36 0 0 Z " fill="#D87531" transform="translate(72,30)"/>
<path d="M0 0 C1.98 0.495 1.98 0.495 4 1 C3.67 2.32 3.34 3.64 3 5 C1.68 4.67 0.36 4.34 -1 4 C-0.67 2.68 -0.34 1.36 0 0 Z " fill="#D97330" transform="translate(80,22)"/>
<path d="M0 0 C0.33 0.66 0.66 1.32 1 2 C-0.625 4.0625 -0.625 4.0625 -3 6 C-6.25 5.75 -6.25 5.75 -9 5 C-8.443125 4.731875 -7.88625 4.46375 -7.3125 4.1875 C-4.80287477 2.89877353 -2.40665764 1.47073522 0 0 Z " fill="#EB6A1B" transform="translate(84,35)"/>
<path d="M0 0 C1.98 0.495 1.98 0.495 4 1 C3.67 2.32 3.34 3.64 3 5 C1.68 4.34 0.36 3.68 -1 3 C-0.67 2.01 -0.34 1.02 0 0 Z " fill="#DE7531" transform="translate(79,29)"/>
<path d="M0 0 C1.65 1.32 3.3 2.64 5 4 C4.67 4.99 4.34 5.98 4 7 C3.01 6.67 2.02 6.34 1 6 C0.67 4.02 0.34 2.04 0 0 Z " fill="#EC681A" transform="translate(92,10)"/>
<path d="M0 0 C1.485 0.99 1.485 0.99 3 2 C1.25 6.875 1.25 6.875 -1 8 C-1.125 2.25 -1.125 2.25 0 0 Z " fill="#F06513" transform="translate(51,37)"/>
<path d="M0 0 C1.32 0 2.64 0 4 0 C4 1.32 4 2.64 4 4 C2.68 4 1.36 4 0 4 C0 2.68 0 1.36 0 0 Z " fill="#E27531" transform="translate(69,24)"/>
<path d="M0 0 C1.98 0.495 1.98 0.495 4 1 C3.67 1.99 3.34 2.98 3 4 C1.68 3.67 0.36 3.34 -1 3 C-0.67 2.01 -0.34 1.02 0 0 Z " fill="#E5732D" transform="translate(74,19)"/>
<path d="M0 0 C0.99 0.33 1.98 0.66 3 1 C3 1.99 3 2.98 3 4 C1.68 4 0.36 4 -1 4 C-0.67 2.68 -0.34 1.36 0 0 Z " fill="#DE7539" transform="translate(37,29)"/>
<path d="M0 0 C1.32 0.33 2.64 0.66 4 1 C3.67 1.99 3.34 2.98 3 4 C2.01 3.67 1.02 3.34 0 3 C0 2.01 0 1.02 0 0 Z " fill="#DA7836" transform="translate(30,36)"/>
<path d="M0 0 C0.99 0 1.98 0 3 0 C3 1.32 3 2.64 3 4 C2.01 4 1.02 4 0 4 C0 2.68 0 1.36 0 0 Z " fill="#DA712F" transform="translate(36,35)"/>
<path d="M0 0 C1.32 0 2.64 0 4 0 C4 0.99 4 1.98 4 3 C2.68 2.67 1.36 2.34 0 2 C0 1.34 0 0.68 0 0 Z " fill="#DD7535" transform="translate(31,27)"/>
<path d="M0 0 C1.32 0.33 2.64 0.66 4 1 C3.67 1.66 3.34 2.32 3 3 C2.01 3 1.02 3 0 3 C0 2.01 0 1.02 0 0 Z " fill="#E06D2C" transform="translate(28,31)"/>
</svg>
