<?xml version="1.0" encoding="UTF-8"?>
<svg version="1.1" xmlns="http://www.w3.org/2000/svg" width="342" height="139">
<path d="M0 0 C6.37122152 5.36982224 9.23550837 11.19977055 10.15234375 19.3203125 C9.93152497 24.89598659 7.86125166 31.09399692 4.078125 35.23828125 C3.62824219 35.63660156 3.17835937 36.03492188 2.71484375 36.4453125 C4.19984375 36.9403125 4.19984375 36.9403125 5.71484375 37.4453125 C5.71484375 38.7653125 5.71484375 40.0853125 5.71484375 41.4453125 C14.95137745 41.40958123 19.01215608 39.19223305 27.71484375 34.4453125 C27.71484375 45.3353125 27.71484375 56.2253125 27.71484375 67.4453125 C17.71484375 62.4453125 17.71484375 62.4453125 16.71484375 61.4453125 C14.86592429 61.21167369 13.00996344 61.03227615 11.15234375 60.8828125 C9.35796875 60.7384375 7.56359375 60.5940625 5.71484375 60.4453125 C5.71484375 66.0553125 5.71484375 71.6653125 5.71484375 77.4453125 C-7.15515625 77.4453125 -20.02515625 77.4453125 -33.28515625 77.4453125 C-33.28515625 73.8153125 -33.28515625 70.1853125 -33.28515625 66.4453125 C-28.33515625 66.4453125 -23.38515625 66.4453125 -18.28515625 66.4453125 C-18.28515625 64.7953125 -18.28515625 63.1453125 -18.28515625 61.4453125 C-23.23515625 61.4453125 -28.18515625 61.4453125 -33.28515625 61.4453125 C-33.28515625 58.8053125 -33.28515625 56.1653125 -33.28515625 53.4453125 C-28.00515625 53.4453125 -22.72515625 53.4453125 -17.28515625 53.4453125 C-17.28515625 51.7953125 -17.28515625 50.1453125 -17.28515625 48.4453125 C-24.87515625 48.4453125 -32.46515625 48.4453125 -40.28515625 48.4453125 C-40.28515625 58.0153125 -40.28515625 67.5853125 -40.28515625 77.4453125 C-46.22515625 77.9403125 -46.22515625 77.9403125 -52.28515625 78.4453125 C-52.94515625 80.7553125 -53.60515625 83.0653125 -54.28515625 85.4453125 C-55.35894531 85.69925781 -56.43273437 85.95320313 -57.5390625 86.21484375 C-58.97533823 86.5621784 -60.41153181 86.90985283 -61.84765625 87.2578125 C-62.55212891 87.42345703 -63.25660156 87.58910156 -63.98242188 87.75976562 C-67.46994218 88.6115563 -70.72613959 89.56329078 -74.00390625 91.0390625 C-76.93569244 92.2955423 -79.08084591 92.89113478 -82.22265625 93.1328125 C-82.99480469 93.19855469 -83.76695313 93.26429687 -84.5625 93.33203125 C-85.41521484 93.38810547 -85.41521484 93.38810547 -86.28515625 93.4453125 C-86.28515625 90.8053125 -86.28515625 88.1653125 -86.28515625 85.4453125 C-84.20351607 85.08132628 -82.11975063 84.72947963 -80.03515625 84.3828125 C-78.875 84.18558594 -77.71484375 83.98835938 -76.51953125 83.78515625 C-73.50869167 83.46879992 -72.11113081 83.73881886 -69.28515625 84.4453125 C-67.02599511 84.20793687 -64.77462415 83.88852204 -62.53515625 83.5078125 C-61.3646875 83.31316406 -60.19421875 83.11851563 -58.98828125 82.91796875 C-58.09625 82.76199219 -57.20421875 82.60601562 -56.28515625 82.4453125 C-56.28515625 80.7953125 -56.28515625 79.1453125 -56.28515625 77.4453125 C-58.26515625 77.4453125 -60.24515625 77.4453125 -62.28515625 77.4453125 C-62.28515625 69.5253125 -62.28515625 61.6053125 -62.28515625 53.4453125 C-64.59515625 54.4353125 -66.90515625 55.4253125 -69.28515625 56.4453125 C-70.12075424 54.63385544 -70.95357674 52.82111783 -71.78515625 51.0078125 C-72.24921875 49.99847656 -72.71328125 48.98914063 -73.19140625 47.94921875 C-74.28515625 45.4453125 -74.28515625 45.4453125 -74.28515625 44.4453125 C-65.71372768 45.4453125 -65.71372768 45.4453125 -62.28515625 46.4453125 C-62.28515625 45.7853125 -62.28515625 45.1253125 -62.28515625 44.4453125 C-63.33703125 44.3525 -63.33703125 44.3525 -64.41015625 44.2578125 C-69.38582505 42.85164523 -72.33320853 39.88964697 -75.09765625 35.6953125 C-77.45299247 29.24912915 -78.11736383 23.68357019 -75.29296875 17.296875 C-72.69886276 12.53095935 -69.66320003 8.83720851 -64.3671875 6.921875 C-58.12600035 5.49331059 -52.35409066 5.36312136 -46.78515625 8.7578125 C-44.88450705 10.09873662 -43.29915053 11.43066653 -41.69140625 13.11328125 C-40.36598241 14.67454207 -40.36598241 14.67454207 -38.28515625 14.4453125 C-38.05441406 13.85363281 -37.82367188 13.26195313 -37.5859375 12.65234375 C-34.26372018 4.60286067 -30.03120797 0.31833836 -22.28515625 -3.5546875 C-14.44956136 -5.58091335 -6.62914198 -4.74478464 0 0 Z M-22.28515625 10.4453125 C-22.86265625 10.8371875 -23.44015625 11.2290625 -24.03515625 11.6328125 C-26.1011402 14.62848923 -26.3895081 17.89734956 -26.28515625 21.4453125 C-24.5199562 26.01406556 -21.6401572 28.30889694 -17.28515625 30.4453125 C-12.85720533 30.88810759 -10.00804167 29.93748981 -6.34765625 27.4453125 C-3.62807733 23.48956135 -2.99924708 20.21046538 -3.28515625 15.4453125 C-4.63982851 11.77972875 -5.85488249 10.71657204 -9.16015625 8.6328125 C-14.65900174 6.54325121 -17.49848954 7.04425984 -22.28515625 10.4453125 Z M-66.28515625 22.4453125 C-66.35416036 26.44755085 -65.91618668 28.5571956 -63.59765625 31.8203125 C-60.69636708 33.85905624 -58.83020636 34.37296454 -55.28515625 34.4453125 C-51.75609558 32.84119402 -50.45742717 31.70371888 -48.28515625 28.4453125 C-47.72469997 24.12179262 -47.80655045 22.14826477 -50.28515625 18.5078125 C-53.60099316 16.22817462 -55.39418336 15.62863788 -59.34375 15.8984375 C-63.10354392 16.95753438 -64.43911663 19.17008092 -66.28515625 22.4453125 Z M-37.28515625 31.4453125 C-39.71229384 34.06382493 -39.71229384 34.06382493 -40.28515625 37.4453125 C-37.31515625 37.4453125 -34.34515625 37.4453125 -31.28515625 37.4453125 C-31.94515625 36.1253125 -32.60515625 34.8053125 -33.28515625 33.4453125 C-33.61515625 32.7853125 -33.94515625 32.1253125 -34.28515625 31.4453125 C-35.27515625 31.4453125 -36.26515625 31.4453125 -37.28515625 31.4453125 Z M-1.28515625 69.4453125 C-1.28515625 70.7653125 -1.28515625 72.0853125 -1.28515625 73.4453125 C-0.62515625 73.1153125 0.03484375 72.7853125 0.71484375 72.4453125 C0.38484375 71.4553125 0.05484375 70.4653125 -0.28515625 69.4453125 C-0.61515625 69.4453125 -0.94515625 69.4453125 -1.28515625 69.4453125 Z " fill="#FB6104" transform="translate(96.28515625,26.5546875)"/>
<path d="M0 0 C4.29 0 8.58 0 13 0 C13.63808594 1.57652344 14.27617187 3.15304688 14.93359375 4.77734375 C15.76809649 6.83078309 16.60273912 8.88416558 17.4375 10.9375 C18.06881836 12.49887695 18.06881836 12.49887695 18.71289062 14.09179688 C19.31713867 15.57583008 19.31713867 15.57583008 19.93359375 17.08984375 C20.4913147 18.46450806 20.4913147 18.46450806 21.06030273 19.86694336 C21.82032819 21.94100301 21.82032819 21.94100301 23 23 C23.2673999 22.3387915 23.5347998 21.67758301 23.81030273 20.99633789 C25.0167498 18.01732351 26.22707088 15.03989848 27.4375 12.0625 C27.85837891 11.02158203 28.27925781 9.98066406 28.71289062 8.90820312 C29.11572266 7.91884766 29.51855469 6.92949219 29.93359375 5.91015625 C30.30540771 4.99371338 30.67722168 4.07727051 31.06030273 3.13305664 C32 1 32 1 33 0 C36.96 0 40.92 0 45 0 C45 13.2 45 26.4 45 40 C42.03 40 39.06 40 36 40 C35.505 29.605 35.505 29.605 35 19 C32.03 25.93 29.06 32.86 26 40 C23.69 40 21.38 40 19 40 C16.36 33.4 13.72 26.8 11 20 C10.67 26.6 10.34 33.2 10 40 C6.7 40 3.4 40 0 40 C0 26.8 0 13.6 0 0 Z " fill="#F86408" transform="translate(131,14)"/>
<path d="M0 0 C6.001875 -0.0928125 6.001875 -0.0928125 12.125 -0.1875 C13.37555176 -0.21481201 14.62610352 -0.24212402 15.91455078 -0.27026367 C22.74313051 -0.32142026 27.17410843 0.22952679 32.8125 4.3125 C34.63743873 6.90583399 34.87836471 8.83748242 35 12 C33.67552193 15.72115268 32.18897086 18.7165437 30 22 C30.72316406 22.57427734 30.72316406 22.57427734 31.4609375 23.16015625 C33.50682438 25.60587381 33.46233577 27.28267013 33.625 30.4375 C33.82064147 33.86122571 34.15947771 36.63791082 35 40 C31.37 40 27.74 40 24 40 C22.05749132 36.11498265 22.34650443 31.25705445 22 27 C18.04 26.67 14.08 26.34 10 26 C10 30.62 10 35.24 10 40 C6.7 40 3.4 40 0 40 C0 26.8 0 13.6 0 0 Z M10 9 C10 11.64 10 14.28 10 17 C11.93681161 17.08107583 13.8745934 17.13922475 15.8125 17.1875 C16.89144531 17.22230469 17.97039062 17.25710937 19.08203125 17.29296875 C22.01948844 17.26536952 22.01948844 17.26536952 23.88671875 15.48828125 C24.25410156 14.99714844 24.62148438 14.50601563 25 14 C24.34 12.35 23.68 10.7 23 9 C18.71 9 14.42 9 10 9 Z " fill="#F6640C" transform="translate(303,89)"/>
<path d="M0 0 C4.57854071 4.63451309 5.80042839 10.17601339 6.0625 16.53125 C5.7934491 23.19025968 4.64999701 28.59900311 -0.0625 33.5 C-5.22475183 37.70627927 -10.74649849 38.07349 -17.23046875 37.8125 C-23.9284384 37.07341369 -27.6639136 34.38169893 -31.8984375 29.21875 C-35.64273357 23.69025915 -34.52199387 15.88629883 -34.0625 9.5 C-32.84770296 4.36999721 -30.51182843 1.5033747 -26.1875 -1.4375 C-18.4593383 -6.05249535 -7.21776468 -5.42100198 0 0 Z M-22.0625 7.5 C-25.01711067 12.07813393 -24.71590748 17.24940414 -24.0625 22.5 C-22.26131522 25.50197464 -21.15917268 26.95166366 -18.0625 28.5 C-12.58859785 29.0358958 -12.58859785 29.0358958 -7.6875 27.0625 C-4.53668192 22.09390226 -3.72629929 17.39494947 -4.75 11.625 C-6.19160656 7.92634958 -6.19160656 7.92634958 -9.0625 5.5 C-14.40187522 4.089599 -17.46441016 4.39896267 -22.0625 7.5 Z " fill="#F6630A" transform="translate(215.0625,17.5)"/>
<path d="M0 0 C3.3 0 6.6 0 10 0 C10.33 4.95 10.66 9.9 11 15 C12.4025 13.453125 13.805 11.90625 15.25 10.3125 C16.03890625 9.44238281 16.8278125 8.57226562 17.640625 7.67578125 C20.0427855 5.07215138 20.0427855 5.07215138 21.875 2.1875 C24 0 24 0 27.234375 -0.48828125 C28.97460938 -0.40126953 28.97460938 -0.40126953 30.75 -0.3125 C31.92046875 -0.26738281 33.0909375 -0.22226563 34.296875 -0.17578125 C35.63492188 -0.08876953 35.63492188 -0.08876953 37 0 C34.73373703 4.11842473 32.00485839 7.37138642 28.8125 10.8125 C28.34908203 11.31458984 27.88566406 11.81667969 27.40820312 12.33398438 C26.27599703 13.55956829 25.13853521 14.78029342 24 16 C28.57431698 24.05729945 33.18437456 32.08340363 38 40 C33.87753087 40.54032362 30.10271981 40.76598094 26 40 C23.10340081 37.44417719 21.65005199 34.45308892 20 31 C19.21698856 29.64081033 18.42634138 28.28596411 17.625 26.9375 C16.820625 25.4834375 16.820625 25.4834375 16 24 C12.75779627 26.41086944 11.25085708 27.74218142 10.4453125 31.78125 C10.21191921 34.52538928 10.05303957 37.24676404 10 40 C6.7 40 3.4 40 0 40 C0 26.8 0 13.6 0 0 Z " fill="#F26610" transform="translate(227,89)"/>
<path d="M0 0 C10.23 0 20.46 0 31 0 C31 2.97 31 5.94 31 9 C24.07 9 17.14 9 10 9 C10.33 10.98 10.66 12.96 11 15 C12.82337891 14.98259766 12.82337891 14.98259766 14.68359375 14.96484375 C16.26822764 14.95546722 17.85286318 14.94636687 19.4375 14.9375 C20.23994141 14.92912109 21.04238281 14.92074219 21.86914062 14.91210938 C23.91295221 14.9034857 25.95683902 14.9477185 28 15 C29 16 29 16 29 24 C23.06 24.33 17.12 24.66 11 25 C10.67 27.31 10.34 29.62 10 32 C10.94637329 31.94670532 10.94637329 31.94670532 11.91186523 31.89233398 C14.75347554 31.73532591 17.595449 31.5863081 20.4375 31.4375 C21.43072266 31.38142578 22.42394531 31.32535156 23.44726562 31.26757812 C24.39150391 31.21923828 25.33574219 31.17089844 26.30859375 31.12109375 C27.18314209 31.0739624 28.05769043 31.02683105 28.95874023 30.97827148 C31 31 31 31 32 32 C32 34.64 32 37.28 32 40 C21.44 40 10.88 40 0 40 C0 26.8 0 13.6 0 0 Z " fill="#F86409" transform="translate(279,14)"/>
<path d="M0 0 C10.23 0 20.46 0 31 0 C31 2.97 31 5.94 31 9 C24.07 9 17.14 9 10 9 C10 11.31 10 13.62 10 16 C16.27 16 22.54 16 29 16 C29 18.64 29 21.28 29 24 C22.73 24 16.46 24 10 24 C10 26.64 10 29.28 10 32 C17.26 32 24.52 32 32 32 C32 34.64 32 37.28 32 40 C21.44 40 10.88 40 0 40 C0 26.8 0 13.6 0 0 Z " fill="#FC6102" transform="translate(267,89)"/>
<path d="M0 0 C4.13042267 3.61533467 5.03548636 8.20589793 5.66015625 13.453125 C2.03015625 13.453125 -1.59984375 13.453125 -5.33984375 13.453125 C-5.99984375 11.143125 -6.65984375 8.833125 -7.33984375 6.453125 C-13.44945825 5.29143532 -13.44945825 5.29143532 -19.33984375 6.765625 C-21.42963341 8.3033643 -21.42963341 8.3033643 -22.33984375 10.453125 C-22.43680695 12.40950014 -22.46963292 14.36935431 -22.46484375 16.328125 C-22.46742188 17.37742187 -22.47 18.42671875 -22.47265625 19.5078125 C-22.32427759 23.07380162 -22.32427759 23.07380162 -21.33984375 26.453125 C-17.63908323 27.68671184 -14.1873045 28.02714132 -10.33984375 27.453125 C-7.37126218 25.24571819 -6.51118584 23.96715127 -5.33984375 20.453125 C-1.70984375 20.453125 1.92015625 20.453125 5.66015625 20.453125 C4.52645332 26.91523168 2.66427647 31.08962887 -2.33984375 35.453125 C-8.15702783 38.6387258 -16.44534547 38.56223778 -22.75390625 36.765625 C-27.44565714 34.65697292 -30.13632142 32.19917309 -32.33984375 27.453125 C-34.40212441 20.02032178 -35.2286311 12.75708952 -32.33984375 5.453125 C-28.77402833 -0.31857022 -25.08681513 -2.61013216 -18.58984375 -4.234375 C-11.50163792 -4.91593325 -5.93634541 -4.10705408 0 0 Z " fill="#F5640D" transform="translate(217.33984375,92.546875)"/>
<path d="M0 0 C3.815625 -0.061875 7.63125 -0.12375 11.5625 -0.1875 C13.34636108 -0.22846802 13.34636108 -0.22846802 15.16625977 -0.27026367 C21.23804561 -0.31779933 25.68115459 -0.02472802 31 3 C33.92423759 6.11289808 34.22168609 8.87278965 34.375 13 C34.22168609 17.12721035 33.92423759 19.88710192 31 23 C24.47571215 27.20454106 17.55870654 26.21596304 10 26 C10 30.62 10 35.24 10 40 C6.7 40 3.4 40 0 40 C0 26.8 0 13.6 0 0 Z M10 9 C10 11.64 10 14.28 10 17 C11.95825873 17.02694851 13.91662226 17.04637218 15.875 17.0625 C17.51082031 17.07990234 17.51082031 17.07990234 19.1796875 17.09765625 C21.95177546 17.19744303 21.95177546 17.19744303 24 16 C24.16687448 13.58354218 24.16687448 13.58354218 24 11 C22.1371051 8.69939466 22.1371051 8.69939466 19.1796875 8.8046875 C18.08914062 8.82789062 16.99859375 8.85109375 15.875 8.875 C14.23144531 8.90207031 14.23144531 8.90207031 12.5546875 8.9296875 C11.71164063 8.95289062 10.86859375 8.97609375 10 9 Z " fill="#F26610" transform="translate(131,89)"/>
<path d="M0 0 C3.63 0 7.26 0 11 0 C12.33708019 3.79038357 13.66982191 7.58219491 15 11.375 C15.3815625 12.45523437 15.763125 13.53546875 16.15625 14.6484375 C16.5171875 15.6796875 16.878125 16.7109375 17.25 17.7734375 C17.58515625 18.72653809 17.9203125 19.67963867 18.265625 20.66162109 C19 23 19 23 19 25 C19.66 25 20.32 25 21 25 C21.226875 23.824375 21.45375 22.64875 21.6875 21.4375 C22.69869494 16.85781279 24.08360439 12.44515277 25.5625 8 C25.78446045 7.3289624 26.0064209 6.6579248 26.23510742 5.96655273 C27.87067074 1.12932926 27.87067074 1.12932926 29 0 C30.68608966 -0.07205511 32.37500659 -0.08386068 34.0625 -0.0625 C34.98160156 -0.05347656 35.90070313 -0.04445313 36.84765625 -0.03515625 C37.55792969 -0.02355469 38.26820313 -0.01195312 39 0 C37.56102723 7.78940949 34.96138003 15.04435504 32.2043457 22.44140625 C31.42966713 24.5210273 30.66441053 26.60394238 29.90039062 28.6875 C26.14870046 38.85129954 26.14870046 38.85129954 25 40 C23.14712498 40.07226502 21.29166122 40.0838122 19.4375 40.0625 C18.42558594 40.05347656 17.41367188 40.04445312 16.37109375 40.03515625 C15.19740234 40.01775391 15.19740234 40.01775391 14 40 C12.00205913 34.6263589 10.00833735 29.25117905 8.01855469 23.87451172 C7.3406845 22.04465217 6.66165178 20.21522285 5.98144531 18.38623047 C5.00542049 15.76120743 4.03355089 13.13467888 3.0625 10.5078125 C2.75626709 9.68693146 2.45003418 8.86605042 2.13452148 8.02029419 C0 2.22774341 0 2.22774341 0 0 Z " fill="#F7640A" transform="translate(221,14)"/>
<path d="M0 0 C3.3 0 6.6 0 10 0 C10 13.2 10 26.4 10 40 C3 41 3 41 0 40 C0 26.8 0 13.6 0 0 Z " fill="#F7640B" transform="translate(169,89)"/>
<path d="M0 0 C3.3 0 6.6 0 10 0 C10 13.2 10 26.4 10 40 C6.7 40 3.4 40 0 40 C0 26.8 0 13.6 0 0 Z " fill="#F8640A" transform="translate(263,14)"/>
<path d="M0 0 C6.93 0 13.86 0 21 0 C20.67 1.32 20.34 2.64 20 4 C20.33 4.66 20.66 5.32 21 6 C17.04 6 13.08 6 9 6 C8.77737394 8.08185451 8.57242074 10.16560426 8.375 12.25 C8.25898438 13.41015625 8.14296875 14.5703125 8.0234375 15.765625 C8.00044405 18.93872091 8.30294846 20.38317244 10 23 C9.67 23.33 9.34 23.66 9 24 C8.76346477 26.52596259 8.57826308 29.03107207 8.4375 31.5625 C8.39431641 32.27341797 8.35113281 32.98433594 8.30664062 33.71679688 C8.20028223 35.47761912 8.09961154 37.2387832 8 39 C5.66705225 39.04241723 3.33297433 39.04092937 1 39 C0 38 0 38 -0.11352539 34.39819336 C-0.11336625 32.79540144 -0.10767063 31.1926044 -0.09765625 29.58984375 C-0.0962413 28.74780899 -0.09482635 27.90577423 -0.09336853 27.03822327 C-0.08775263 24.33794665 -0.07519748 21.63775172 -0.0625 18.9375 C-0.05748705 17.11132932 -0.05292379 15.28515734 -0.04882812 13.45898438 C-0.03862716 8.97259915 -0.01905499 4.48639145 0 0 Z " fill="#FB6103" transform="translate(132,90)"/>
<path d="M0 0 C10.23 0 20.46 0 31 0 C31 2.97 31 5.94 31 9 C24.07 9 17.14 9 10 9 C13.02091673 5.97908327 16.2392392 6.61196216 20.37109375 6.44140625 C23.29923069 5.9497577 24.19631085 5.29282519 26 3 C24.28556781 1.28556781 21.99554759 1.76947033 19.65234375 1.68359375 C18.19429321 1.62643188 18.19429321 1.62643188 16.70678711 1.56811523 C15.46292236 1.52501221 14.21905762 1.48190918 12.9375 1.4375 C8.998125 1.293125 5.05875 1.14875 1 1 C1 13.54 1 26.08 1 39 C7.6828237 38.87412301 7.6828237 38.87412301 9.5 36.0625 C10.24598544 33.95417784 10.24598544 33.95417784 9 32 C16.59 32 24.18 32 32 32 C32 34.64 32 37.28 32 40 C21.44 40 10.88 40 0 40 C0 26.8 0 13.6 0 0 Z " fill="#F7640B" transform="translate(267,89)"/>
<path d="M0 0 C2.64 0 5.28 0 8 0 C8.0270203 2.75006608 8.04684883 5.49986546 8.0625 8.25 C8.07087891 9.02730469 8.07925781 9.80460937 8.08789062 10.60546875 C8.09111328 11.35957031 8.09433594 12.11367187 8.09765625 12.890625 C8.10289307 13.58188477 8.10812988 14.27314453 8.11352539 14.98535156 C7.99437971 17.09973898 7.57618237 18.96641515 7 21 C7.99 21.66 8.98 22.32 10 23 C10.05632424 25.80435411 9.95814702 28.35146678 9.6875 31.125 C9.62626953 31.87910156 9.56503906 32.63320312 9.50195312 33.41015625 C9.3485467 35.27463438 9.17606541 37.13752498 9 39 C6.03 39 3.06 39 0 39 C0 26.13 0 13.26 0 0 Z " fill="#FA6205" transform="translate(228,90)"/>
<path d="M0 0 C1.37478516 0.01740234 1.37478516 0.01740234 2.77734375 0.03515625 C3.69644531 0.04417969 4.61554688 0.05320312 5.5625 0.0625 C6.27277344 0.07410156 6.98304688 0.08570313 7.71484375 0.09765625 C6.27416881 7.62557861 3.84479903 14.51879561 1.08984375 21.66015625 C0.66960937 22.76423828 0.249375 23.86832031 -0.18359375 25.00585938 C-1.21194601 27.70528406 -2.24589675 30.40241626 -3.28515625 33.09765625 C-4.70202744 28.84704269 -3.47835664 26.37914 -2.28515625 22.09765625 C-3.93515625 21.76765625 -5.58515625 21.43765625 -7.28515625 21.09765625 C-7.28515625 21.75765625 -7.28515625 22.41765625 -7.28515625 23.09765625 C-7.94515625 23.09765625 -8.60515625 23.09765625 -9.28515625 23.09765625 C-9.61515625 23.75765625 -9.94515625 24.41765625 -10.28515625 25.09765625 C-9.16128697 19.27396998 -7.59244745 13.71773349 -5.72265625 8.09765625 C-5.5006958 7.42661865 -5.27873535 6.75558105 -5.05004883 6.06420898 C-3.04359553 0.13006818 -3.04359553 0.13006818 0 0 Z " fill="#F46710" transform="translate(252.28515625,13.90234375)"/>
<path d="M0 0 C0.99 0 1.98 0 3 0 C2.67 2.64 2.34 5.28 2 8 C0.92621094 8.25394531 -0.14757812 8.50789063 -1.25390625 8.76953125 C-2.69018198 9.1168659 -4.12637556 9.46454033 -5.5625 9.8125 C-6.26697266 9.97814453 -6.97144531 10.14378906 -7.69726562 10.31445312 C-11.18478593 11.1662438 -14.44098334 12.11797828 -17.71875 13.59375 C-20.65053619 14.8502298 -22.79568966 15.44582228 -25.9375 15.6875 C-27.09572266 15.78611328 -27.09572266 15.78611328 -28.27734375 15.88671875 C-28.84582031 15.92410156 -29.41429687 15.96148437 -30 16 C-30 13.36 -30 10.72 -30 8 C-27.91835982 7.63601378 -25.83459438 7.28416713 -23.75 6.9375 C-22.00976562 6.64166016 -22.00976562 6.64166016 -20.234375 6.33984375 C-17.22353542 6.02348742 -15.82597456 6.29350636 -13 7 C-10.74083886 6.76262437 -8.4894679 6.44320954 -6.25 6.0625 C-5.07953125 5.86785156 -3.9090625 5.67320313 -2.703125 5.47265625 C-1.81109375 5.31667969 -0.9190625 5.16070312 0 5 C0 3.35 0 1.7 0 0 Z " fill="#F26611" transform="translate(40,104)"/>
<path d="M0 0 C0 0.99 0 1.98 0 3 C0.85851562 3.02900391 0.85851562 3.02900391 1.734375 3.05859375 C5.32277874 4.54963737 6.51487825 7.77540825 8.25 11.0625 C8.61351562 11.72572266 8.97703125 12.38894531 9.3515625 13.07226562 C10.24616748 14.70845105 11.12466067 16.35342724 12 18 C10.04233719 18.08082094 8.08373272 18.13910778 6.125 18.1875 C4.48917969 18.23970703 4.48917969 18.23970703 2.8203125 18.29296875 C1.88960937 18.19628906 0.95890625 18.09960938 0 18 C-2.29013653 14.5647952 -2.17842973 13.014669 -2 9 C-2.99 9.495 -2.99 9.495 -4 10 C-6.09350689 6.5980513 -6.17942163 3.94727588 -6 0 C-2.25 -1.125 -2.25 -1.125 0 0 Z " fill="#F4650D" transform="translate(253,111)"/>
<path d="M0 0 C10.23 0 20.46 0 31 0 C31 2.97 31 5.94 31 9 C24.07 9 17.14 9 10 9 C13.02091673 5.97908327 16.2392392 6.61196216 20.37109375 6.44140625 C23.29923069 5.9497577 24.19631085 5.29282519 26 3 C24.28556781 1.28556781 21.99554759 1.76947033 19.65234375 1.68359375 C18.19429321 1.62643188 18.19429321 1.62643188 16.70678711 1.56811523 C15.46292236 1.52501221 14.21905762 1.48190918 12.9375 1.4375 C8.998125 1.293125 5.05875 1.14875 1 1 C1 13.87 1 26.74 1 40 C0.67 40 0.34 40 0 40 C0 26.8 0 13.6 0 0 Z " fill="#E46E23" transform="translate(267,89)"/>
<path d="M0 0 C3.63 0 7.26 0 11 0 C9.88154996 6.37516522 7.96506145 10.68255526 3 15 C2.34 15 1.68 15 1 15 C1.33 12.69 1.66 10.38 2 8 C1.38125 8.350625 0.7625 8.70125 0.125 9.0625 C-4.37011449 10.41103435 -8.40954987 9.65959866 -13 9 C-13 9.99 -13 10.98 -13 12 C-13.99 11.67 -14.98 11.34 -16 11 C-15.67 9.68 -15.34 8.36 -15 7 C-14.32453125 7.04640625 -13.6490625 7.0928125 -12.953125 7.140625 C-7.34989665 7.49638327 -7.34989665 7.49638327 -2.4375 5.1875 C-0.84851478 2.97341537 -0.84851478 2.97341537 0 0 Z " fill="#F06611" transform="translate(212,113)"/>
<path d="M0 0 C0.33 0.66 0.66 1.32 1 2 C1.66 2.33 2.32 2.66 3 3 C2.67 4.32 2.34 5.64 2 7 C-0.475 6.505 -0.475 6.505 -3 6 C-3.33 6.99 -3.66 7.98 -4 9 C-6 11 -6 11 -9.4765625 11.1953125 C-10.85950968 11.18201493 -12.24238654 11.15816232 -13.625 11.125 C-14.33140625 11.11597656 -15.0378125 11.10695313 -15.765625 11.09765625 C-17.51056098 11.07407603 -19.25532295 11.03820461 -21 11 C-21.33 9.02 -21.66 7.04 -22 5 C-17.38926889 3.70323188 -13.66159911 4.28890861 -9 5 C-9 4.34 -9 3.68 -9 3 C-6.03 2.01 -3.06 1.02 0 0 Z " fill="#FC6102" transform="translate(212,43)"/>
<path d="M0 0 C0.33 0 0.66 0 1 0 C1 2.31 1 4.62 1 7 C7.27 7 13.54 7 20 7 C20 9.64 20 12.28 20 15 C13.73 15 7.46 15 1 15 C1 17.31 1 19.62 1 22 C0.67 22 0.34 22 0 22 C0 19.36 0 16.72 0 14 C2.31 14 4.62 14 7 14 C7 12.02 7 10.04 7 8 C4.69 8 2.38 8 0 8 C0 5.36 0 2.72 0 0 Z " fill="#F56914" transform="translate(276,98)"/>
<path d="M0 0 C0.99 0.33 1.98 0.66 3 1 C2.34 3.31 1.68 5.62 1 8 C-0.47831221 8.19412181 -1.95769316 8.38012131 -3.4375 8.5625 C-4.26121094 8.66691406 -5.08492187 8.77132812 -5.93359375 8.87890625 C-6.61550781 8.91886719 -7.29742187 8.95882812 -8 9 C-8.33 8.67 -8.66 8.34 -9 8 C-11.33297433 7.95907063 -13.66705225 7.95758277 -16 8 C-16 7.01 -16 6.02 -16 5 C-15.01 5 -14.02 5 -13 5 C-13 4.01 -13 3.02 -13 2 C-12.22914063 2.02320312 -11.45828125 2.04640625 -10.6640625 2.0703125 C-9.15972656 2.09738281 -9.15972656 2.09738281 -7.625 2.125 C-6.62726563 2.14820312 -5.62953125 2.17140625 -4.6015625 2.1953125 C-1.83737827 2.27216848 -1.83737827 2.27216848 0 0 Z " fill="#FC6002" transform="translate(212,120)"/>
<path d="M0 0 C4.31901564 0.0343324 4.31901564 0.0343324 6.6875 2.1875 C7.625 4.3125 7.625 4.3125 7.625 6.3125 C8.945 6.3125 10.265 6.3125 11.625 6.3125 C11.625 7.6325 11.625 8.9525 11.625 10.3125 C9.3125 10.5 9.3125 10.5 6.625 10.3125 C6.191875 9.838125 5.75875 9.36375 5.3125 8.875 C2.99787063 6.73182466 1.02519311 6.59723542 -2.0625 6.125 C-3.05636719 5.96644531 -4.05023438 5.80789062 -5.07421875 5.64453125 C-6.21310547 5.48017578 -6.21310547 5.48017578 -7.375 5.3125 C-5.29502249 1.01387981 -4.85109314 0.14914364 0 0 Z " fill="#FC6002" transform="translate(321.375,107.6875)"/>
<path d="M0 0 C4 1 4 1 5.75 3.5625 C6.1625 4.366875 6.575 5.17125 7 6 C7.33 4.02 7.66 2.04 8 0 C8.66 0 9.32 0 10 0 C10 4.29 10 8.58 10 13 C9.01 13 8.02 13 7 13 C5.3125 10.5 5.3125 10.5 4 8 C3.67 9.65 3.34 11.3 3 13 C2.01 13 1.02 13 0 13 C0 8.71 0 4.42 0 0 Z " fill="#DB7231" transform="translate(291,70)"/>
<path d="M0 0 C0.99 0 1.98 0 3 0 C3.33 3.3 3.66 6.6 4 10 C5.32 10.33 6.64 10.66 8 11 C8 7.37 8 3.74 8 0 C8.99 0 9.98 0 11 0 C11.05391993 1.79133978 11.09275571 3.58313899 11.125 5.375 C11.14820313 6.37273437 11.17140625 7.37046875 11.1953125 8.3984375 C11 11 11 11 9 13 C5.5 13.3125 5.5 13.3125 2 13 C-0.20914 9.68629 -0.22481553 8.6553979 -0.125 4.8125 C-0.10695313 3.91144531 -0.08890625 3.01039062 -0.0703125 2.08203125 C-0.04710937 1.39496094 -0.02390625 0.70789063 0 0 Z " fill="#DB7538" transform="translate(269,70)"/>
<path d="M0 0 C0.66 0 1.32 0 2 0 C2 1.65 2 3.3 2 5 C3.98 5 5.96 5 8 5 C7.67 3.35 7.34 1.7 7 0 C7.99 0 8.98 0 10 0 C10 4.29 10 8.58 10 13 C9.01 13 8.02 13 7 13 C7 11.68 7 10.36 7 9 C5.35 8.67 3.7 8.34 2 8 C2 9.65 2 11.3 2 13 C1.34 13 0.68 13 0 13 C0 8.71 0 4.42 0 0 Z " fill="#E17C3B" transform="translate(151,70)"/>
<path d="M0 0 C3.3 0 6.6 0 10 0 C10 0.66 10 1.32 10 2 C8.865625 2.12375 7.73125 2.2475 6.5625 2.375 C4.7990625 2.684375 4.7990625 2.684375 3 3 C2.67 3.66 2.34 4.32 2 5 C4.31 5 6.62 5 9 5 C9 5.66 9 6.32 9 7 C7.02 7.33 5.04 7.66 3 8 C2.67 8.99 2.34 9.98 2 11 C4.64 11 7.28 11 10 11 C10 11.66 10 12.32 10 13 C6.7 13 3.4 13 0 13 C0 8.71 0 4.42 0 0 Z " fill="#E27A34" transform="translate(213,70)"/>
<path d="M0 0 C0 0.99 0 1.98 0 3 C0.66 3 1.32 3 2 3 C2.33 4.32 2.66 5.64 3 7 C2.01 7.33 1.02 7.66 0 8 C0.2784375 9.1446875 0.2784375 9.1446875 0.5625 10.3125 C1 13 1 13 0 16 C-0.66 15.67 -1.32 15.34 -2 15 C-2 13.02 -2 11.04 -2 9 C-2.99 9.495 -2.99 9.495 -4 10 C-6.09350689 6.5980513 -6.17942163 3.94727588 -6 0 C-2.25 -1.125 -2.25 -1.125 0 0 Z " fill="#FB6004" transform="translate(253,111)"/>
<path d="M0 0 C0.99 0 1.98 0 3 0 C3.67057887 1.7902061 4.3363469 3.58221489 5 5.375 C5.556875 6.87160156 5.556875 6.87160156 6.125 8.3984375 C7 11 7 11 7 13 C6.01 12.67 5.02 12.34 4 12 C4 11.34 4 10.68 4 10 C2.35 10 0.7 10 -1 10 C-1 10.99 -1 11.98 -1 13 C-1.99 13 -2.98 13 -4 13 C-3.52140759 11.39566191 -3.04210442 9.79153584 -2.5625 8.1875 C-2.29566406 7.29417969 -2.02882812 6.40085937 -1.75390625 5.48046875 C-1.19612127 3.64526945 -0.60655425 1.81966274 0 0 Z M1 5 C2 7 2 7 2 7 Z " fill="#ED7628" transform="translate(175,70)"/>
<path d="M0 0 C8.57142857 1 8.57142857 1 12 2 C12.33 1.34 12.66 0.68 13 0 C13.66 0.33 14.32 0.66 15 1 C14.67 2.32 14.34 3.64 14 5 C11.69 5 9.38 5 7 5 C6.34 6.65 5.68 8.3 5 10 C2.35534962 6.8745041 1.15585285 3.91211733 0 0 Z " fill="#F66511" transform="translate(22,71)"/>
<path d="M0 0 C1.52519276 0.08937803 3.04681929 0.24537146 4.5625 0.4375 C5.80193359 0.59025391 5.80193359 0.59025391 7.06640625 0.74609375 C7.70449219 0.82988281 8.34257812 0.91367188 9 1 C9 1.66 9 2.32 9 3 C7.865625 3.12375 6.73125 3.2475 5.5625 3.375 C3.7990625 3.684375 3.7990625 3.684375 2 4 C1.67 4.66 1.34 5.32 1 6 C3.31 6 5.62 6 8 6 C8 6.66 8 7.32 8 8 C6.02 8.33 4.04 8.66 2 9 C1.67 10.65 1.34 12.3 1 14 C0.34 14 -0.32 14 -1 14 C-1.02685938 11.85423363 -1.04633088 9.70837355 -1.0625 7.5625 C-1.07410156 6.36753906 -1.08570313 5.17257813 -1.09765625 3.94140625 C-1 1 -1 1 0 0 Z " fill="#E77732" transform="translate(250,69)"/>
<path d="M0 0 C0.66 0 1.32 0 2 0 C3.25664978 2.90600261 4 4.79604584 4 8 C4.66 8 5.32 8 6 8 C6.2165625 6.576875 6.2165625 6.576875 6.4375 5.125 C7 2 7 2 8 0 C8.99 0.33 9.98 0.66 11 1 C9.68 4.96 8.36 8.92 7 13 C5.68 12.67 4.36 12.34 3 12 C1.953125 10.0390625 1.953125 10.0390625 1.25 7.625 C1.00765625 6.83351563 0.7653125 6.04203125 0.515625 5.2265625 C0 3 0 3 0 0 Z " fill="#E8732B" transform="translate(192,70)"/>
<path d="M0 0 C0.33 0.66 0.66 1.32 1 2 C-0.74976783 6.41744666 -3.43514019 10.09956898 -7.5625 12.5 C-12.75960875 14.7415011 -18.45130188 14.70694524 -24 14 C-24.99 13.34 -25.98 12.68 -27 12 C-26.02417969 12.04640625 -25.04835937 12.0928125 -24.04296875 12.140625 C-22.77066406 12.17671875 -21.49835938 12.2128125 -20.1875 12.25 C-18.92292969 12.29640625 -17.65835938 12.3428125 -16.35546875 12.390625 C-12.92720152 12.35068892 -12.92720152 12.35068892 -11.05078125 9.984375 C-10.70402344 9.32953125 -10.35726562 8.6746875 -10 8 C-7.525 8.495 -7.525 8.495 -5 9 C-4.9175 8.2575 -4.835 7.515 -4.75 6.75 C-3.8603054 3.48778646 -2.51496251 2.19045122 0 0 Z " fill="#EC6C1B" transform="translate(219,41)"/>
<path d="M0 0 C0.99 0 1.98 0 3 0 C2.67 2.64 2.34 5.28 2 8 C-1.63 8.66 -5.26 9.32 -9 10 C-9 9.34 -9 8.68 -9 8 C-10.32 7.67 -11.64 7.34 -13 7 C-8.71 6.34 -4.42 5.68 0 5 C0 3.35 0 1.7 0 0 Z " fill="#EA7024" transform="translate(40,104)"/>
<path d="M0 0 C1.79244141 0.01740234 1.79244141 0.01740234 3.62109375 0.03515625 C5.41740234 0.04869141 5.41740234 0.04869141 7.25 0.0625 C8.17683594 0.07410156 9.10367187 0.08570312 10.05859375 0.09765625 C8.06003458 3.59656643 6.45525133 5.8722599 3.05859375 8.09765625 C3.38859375 6.11765625 3.71859375 4.13765625 4.05859375 2.09765625 C-0.89140625 3.58265625 -0.89140625 3.58265625 -5.94140625 5.09765625 C-3.44984649 0.11453674 -3.44984649 0.11453674 0 0 Z " fill="#E56E1F" transform="translate(253.94140625,88.90234375)"/>
<path d="M0 0 C0.66 0.33 1.32 0.66 2 1 C2 1.66 2 2.32 2 3 C2.99 3.33 3.98 3.66 5 4 C4.67 4.99 4.34 5.98 4 7 C3.81050404 9.83401739 3.68352559 12.6656975 3.57421875 15.50390625 C3 18 3 18 0.95703125 19.33984375 C0.31121094 19.55769531 -0.33460937 19.77554688 -1 20 C-0.67 19.29875 -0.34 18.5975 0 17.875 C1.45980797 13.67805209 1.41730887 10.44453072 0.1875 6.1875 C-0.85789795 3.66798742 -0.85789795 3.66798742 -4 3 C-2.68 2.67 -1.36 2.34 0 2 C0 1.34 0 0.68 0 0 Z " fill="#F16815" transform="translate(91,33)"/>
<path d="M0 0 C1.91015625 1.10546875 1.91015625 1.10546875 4.72265625 3.10546875 C3.73265625 3.60046875 3.73265625 3.60046875 2.72265625 4.10546875 C2.06265625 3.77546875 1.40265625 3.44546875 0.72265625 3.10546875 C-3.11194172 1.82726943 -5.94424139 2.42497481 -9.875 3.109375 C-12.9225329 3.10441966 -14.05877559 2.10884092 -16.27734375 0.10546875 C-11.14367908 -1.60575281 -5.10429794 -2.00494722 0 0 Z " fill="#EF6717" transform="translate(47.27734375,33.89453125)"/>
<path d="M0 0 C0.33 0 0.66 0 1 0 C1 2.64 1 5.28 1 8 C5.62 7.67 10.24 7.34 15 7 C14.67 7.99 14.34 8.98 14 10 C13.16855469 10.06058594 12.33710938 10.12117188 11.48046875 10.18359375 C10.39378906 10.26738281 9.30710938 10.35117188 8.1875 10.4375 C7.10855469 10.51871094 6.02960938 10.59992188 4.91796875 10.68359375 C1.94010095 10.90212461 1.94010095 10.90212461 -1 12 C-0.67 8.04 -0.34 4.08 0 0 Z " fill="#E66D24" transform="translate(140,98)"/>
<path d="M0 0 C5.28 0 10.56 0 16 0 C12 3 12 3 10 3 C10 2.34 10 1.68 10 1 C7.03 1 4.06 1 1 1 C1 2.98 1 4.96 1 7 C5.29 7 9.58 7 14 7 C14 7.33 14 7.66 14 8 C9.38 8 4.76 8 0 8 C0 5.36 0 2.72 0 0 Z " fill="#E66E26" transform="translate(63,80)"/>
<path d="M0 0 C3.25 -0.3125 3.25 -0.3125 7 0 C9.4375 2.5 9.4375 2.5 11 5 C9.68 5.33 8.36 5.66 7 6 C7 5.01 7 4.02 7 3 C6.34 3 5.68 3 5 3 C4.67 3.99 4.34 4.98 4 6 C3.01 5.67 2.02 5.34 1 5 C0.67 3.35 0.34 1.7 0 0 Z " fill="#FC5E03" transform="translate(223,15)"/>
<path d="M0 0 C0 3 0 3 -2 6 C-1.01 6.99 -0.02 7.98 1 9 C0.67 9.66 0.34 10.32 0 11 C-0.99 11 -1.98 11 -3 11 C-3.33 10.34 -3.66 9.68 -4 9 C-4.66 9 -5.32 9 -6 9 C-6 8.34 -6 7.68 -6 7 C-6.66 6.67 -7.32 6.34 -8 6 C-5.36 4.02 -2.72 2.04 0 0 Z " fill="#F06818" transform="translate(335,105)"/>
<path d="M0 0 C0.99 0.33 1.98 0.66 3 1 C3 3.64 3 6.28 3 9 C-3.27 9 -9.54 9 -16 9 C-16 8.67 -16 8.34 -16 8 C-10.06 8 -4.12 8 2 8 C2 7.01 2 6.02 2 5 C1.01 4.67 0.02 4.34 -1 4 C-0.34 4 0.32 4 1 4 C0.67 2.68 0.34 1.36 0 0 Z " fill="#FA7A1C" transform="translate(305,29)"/>
<path d="M0 0 C2.97 0 5.94 0 9 0 C9 0.66 9 1.32 9 2 C7.73581754 2.69965443 6.46334598 3.38434763 5.1875 4.0625 C4.47980469 4.44535156 3.77210937 4.82820313 3.04296875 5.22265625 C1 6 1 6 -2 5 C-1.34 3.35 -0.68 1.7 0 0 Z " fill="#F3650B" transform="translate(22,112)"/>
<path d="M0 0 C2.01136276 2.55991624 3.62845496 5.04590299 5 8 C5.99 5.69 6.98 3.38 8 1 C8.33 1 8.66 1 9 1 C9.25 6.625 9.25 6.625 7 10 C5.68 10 4.36 10 3 10 C0.33563684 6.66954606 -0.3619323 4.2225435 0 0 Z " fill="#E56B1D" transform="translate(149,29)"/>
<path d="M0 0 C1.65 0 3.3 0 5 0 C5 1.65 5 3.3 5 5 C5.66 5.33 6.32 5.66 7 6 C6.01 7.32 5.02 8.64 4 10 C2.68 6.7 1.36 3.4 0 0 Z " fill="#EC6B18" transform="translate(22,71)"/>
<path d="M0 0 C0.33 0.99 0.66 1.98 1 3 C4.465 2.505 4.465 2.505 8 2 C8.33 3.65 8.66 5.3 9 7 C8.01 6.67 7.02 6.34 6 6 C6 5.34 6 4.68 6 4 C4.35 4 2.7 4 1 4 C1 4.99 1 5.98 1 7 C0.01 7 -0.98 7 -2 7 C-1.34 4.69 -0.68 2.38 0 0 Z " fill="#E07C38" transform="translate(173,76)"/>
<path d="M0 0 C0.99 0 1.98 0 3 0 C2.67 4.29 2.34 8.58 2 13 C1.34 13 0.68 13 0 13 C0 8.71 0 4.42 0 0 Z " fill="#ED7329" transform="translate(314,70)"/>
<path d="M0 0 C0.79921875 0.01804688 1.5984375 0.03609375 2.421875 0.0546875 C3.02515625 0.07789063 3.6284375 0.10109375 4.25 0.125 C4.25 0.455 4.25 0.785 4.25 1.125 C3.0125 1.186875 1.775 1.24875 0.5 1.3125 C-2.83974112 1.73218428 -3.59865256 1.98529467 -6.1875 4.375 C-7.71144546 7.057144 -8.4018167 9.0783961 -8.75 12.125 C-9.08 12.125 -9.41 12.125 -9.75 12.125 C-9.68999894 10.4989713 -9.6012115 8.87398451 -9.5 7.25 C-9.45359375 6.34507813 -9.4071875 5.44015625 -9.359375 4.5078125 C-8.75 2.125 -8.75 2.125 -7 0.8125 C-4.53492444 0.05928247 -2.57183991 -0.07564235 0 0 Z " fill="#EB6E1E" transform="translate(38.75,41.875)"/>
<path d="M0 0 C1.32 0.99 2.64 1.98 4 3 C2.25 7.875 2.25 7.875 0 9 C-0.33 8.01 -0.66 7.02 -1 6 C-1 6.99 -1 7.98 -1 9 C-1.66 9 -2.32 9 -3 9 C-2.01 6.03 -1.02 3.06 0 0 Z " fill="#F06712" transform="translate(161,20)"/>
<path d="M0 0 C1.32 0 2.64 0 4 0 C2.75023244 3.65316671 2.32901247 4.78065836 -1 7 C-3.1875 6.625 -3.1875 6.625 -5 6 C-4.01 6 -3.02 6 -2 6 C-2 5.01 -2 4.02 -2 3 C-1.34 3 -0.68 3 0 3 C0 2.01 0 1.02 0 0 Z " fill="#F26616" transform="translate(160,107)"/>
<path d="M0 0 C0.66 0 1.32 0 2 0 C3.625 2.5 3.625 2.5 5 5 C5.66 4.34 6.32 3.68 7 3 C7 5.64 7 8.28 7 11 C4.0444623 8.24829249 1.88436685 5.58029701 0 2 C0 1.34 0 0.68 0 0 Z " fill="#EF6614" transform="translate(245,115)"/>
<path d="M0 0 C0.66 0 1.32 0 2 0 C2.33 2.31 2.66 4.62 3 7 C1.02 7 -0.96 7 -3 7 C-2.01 4.69 -1.02 2.38 0 0 Z " fill="#F96202" transform="translate(218,98)"/>
<path d="M0 0 C0.66 0 1.32 0 2 0 C2 3.96 2 7.92 2 12 C1.01 11.34 0.02 10.68 -1 10 C-0.67 6.7 -0.34 3.4 0 0 Z " fill="#E67B38" transform="translate(299,70)"/>
<path d="M0 0 C0.70125 0.474375 1.4025 0.94875 2.125 1.4375 C5.16081337 3.08739857 7.59168786 3.60368464 11 4 C11 4.66 11 5.32 11 6 C3.5577342 6.36601307 3.5577342 6.36601307 1 4.6875 C0 3 0 3 0 0 Z " fill="#E96B1C" transform="translate(192,42)"/>
<path d="M0 0 C3.13269705 3.13269705 3.05494397 5.97328423 3.0625 10.25 C3.041875 11.4875 3.02125 12.725 3 14 C-0.2102122 10.7897878 0.01025241 7.62539686 -0.0625 3.1875 C-0.041875 2.135625 -0.02125 1.08375 0 0 Z " fill="#E36A24" transform="translate(103,36)"/>
<path d="M0 0 C-0.33 0.99 -0.66 1.98 -1 3 C-0.34 3.66 0.32 4.32 1 5 C-1.3125 5.625 -1.3125 5.625 -4 6 C-4.99 5.34 -5.98 4.68 -7 4 C-2.25 0 -2.25 0 0 0 Z " fill="#ED6716" transform="translate(31,35)"/>
<path d="M0 0 C0 0.99 0 1.98 0 3 C-1.98 3.33 -3.96 3.66 -6 4 C-6 3.34 -6 2.68 -6 2 C-7.32 1.67 -8.64 1.34 -10 1 C-6.59437148 0.22157062 -3.49234244 -0.09978121 0 0 Z " fill="#EE6F18" transform="translate(37,110)"/>
<path d="M0 0 C0.99 0.33 1.98 0.66 3 1 C2.01 3.97 1.02 6.94 0 10 C-0.66 9.34 -1.32 8.68 -2 8 C-1.69347955 5.0574037 -1.32728846 2.65457692 0 0 Z " fill="#D88849" transform="translate(200,70)"/>
<path d="M0 0 C0.99 0.33 1.98 0.66 3 1 C3.33 2.65 3.66 4.3 4 6 C2.35 6.33 0.7 6.66 -1 7 C-0.67 4.69 -0.34 2.38 0 0 Z " fill="#FC6002" transform="translate(250,16)"/>
<path d="M0 0 C-0.7425 0.391875 -1.485 0.78375 -2.25 1.1875 C-5.19783071 3.13038842 -6.93098611 5.16468467 -9 8 C-8.75 4.625 -8.75 4.625 -8 1 C-5.20799413 -1.31062555 -3.32874667 -1.1888381 0 0 Z " fill="#E56F20" transform="translate(79,35)"/>
<path d="M0 0 C-0.33 1.32 -0.66 2.64 -1 4 C-5.29 3.34 -9.58 2.68 -14 2 C-14 1.67 -14 1.34 -14 1 C-12.04175306 0.83232136 -10.08339945 0.66588795 -8.125 0.5 C-6.48917969 0.36078125 -6.48917969 0.36078125 -4.8203125 0.21875 C-3.21670436 0.09437042 -1.60842449 0 0 0 Z " fill="#EC6A16" transform="translate(117,85)"/>
<path d="M0 0 C2.97 0.33 5.94 0.66 9 1 C9 1.66 9 2.32 9 3 C6.1875 3.625 6.1875 3.625 3 4 C2.01 3.34 1.02 2.68 0 2 C0 1.34 0 0.68 0 0 Z " fill="#F5A33C" transform="translate(250,69)"/>
<path d="M0 0 C1.98 0.495 1.98 0.495 4 1 C3.67 2.32 3.34 3.64 3 5 C1.68 4.67 0.36 4.34 -1 4 C-0.67 2.68 -0.34 1.36 0 0 Z " fill="#D87531" transform="translate(77,48)"/>
<path d="M0 0 C1.98 0.495 1.98 0.495 4 1 C3.67 2.32 3.34 3.64 3 5 C1.68 4.67 0.36 4.34 -1 4 C-0.67 2.68 -0.34 1.36 0 0 Z " fill="#D97330" transform="translate(85,40)"/>
<path d="M0 0 C0.66 0 1.32 0 2 0 C4.09230769 4.43076923 4.09230769 4.43076923 3.625 7.3125 C3.41875 7.869375 3.2125 8.42625 3 9 C0.87491756 5.81237635 0.4979837 3.73487777 0 0 Z " fill="#E07E3F" transform="translate(192,70)"/>
<path d="M0 0 C0.33 0.66 0.66 1.32 1 2 C-0.625 4.0625 -0.625 4.0625 -3 6 C-6.25 5.75 -6.25 5.75 -9 5 C-8.443125 4.731875 -7.88625 4.46375 -7.3125 4.1875 C-4.80287477 2.89877353 -2.40665764 1.47073522 0 0 Z " fill="#EB6A1B" transform="translate(89,53)"/>
<path d="M0 0 C0.66 0 1.32 0 2 0 C2 0.66 2 1.32 2 2 C2.66 2 3.32 2 4 2 C4 2.66 4 3.32 4 4 C4.66 4.33 5.32 4.66 6 5 C5.67 5.66 5.34 6.32 5 7 C4.01 7 3.02 7 2 7 C1.34 4.69 0.68 2.38 0 0 Z " fill="#EC6819" transform="translate(148,47)"/>
<path d="M0 0 C1.98 0.495 1.98 0.495 4 1 C3.67 2.32 3.34 3.64 3 5 C1.68 4.34 0.36 3.68 -1 3 C-0.67 2.01 -0.34 1.02 0 0 Z " fill="#DE7531" transform="translate(84,47)"/>
<path d="M0 0 C1.65 1.32 3.3 2.64 5 4 C4.67 4.99 4.34 5.98 4 7 C3.01 6.67 2.02 6.34 1 6 C0.67 4.02 0.34 2.04 0 0 Z " fill="#EC681A" transform="translate(97,28)"/>
<path d="M0 0 C0.66 0 1.32 0 2 0 C2 1.32 2 2.64 2 4 C2.99 4.33 3.98 4.66 5 5 C1.79937313 6.60031344 -0.72271806 5.03173691 -4 4 C-2.68 3.67 -1.36 3.34 0 3 C0 2.01 0 1.02 0 0 Z " fill="#F06217" transform="translate(205,93)"/>
<path d="M0 0 C2.97 0 5.94 0 9 0 C9 0.66 9 1.32 9 2 C6.1875 2.6875 6.1875 2.6875 3 3 C2.01 2.01 1.02 1.02 0 0 Z " fill="#F39545" transform="translate(214,70)"/>
<path d="M0 0 C1.485 0.99 1.485 0.99 3 2 C1.25 6.875 1.25 6.875 -1 8 C-1.125 2.25 -1.125 2.25 0 0 Z " fill="#F06513" transform="translate(56,55)"/>
<path d="M0 0 C1.32 0 2.64 0 4 0 C4 1.32 4 2.64 4 4 C2.68 4 1.36 4 0 4 C0 2.68 0 1.36 0 0 Z " fill="#E27531" transform="translate(74,42)"/>
<path d="M0 0 C1.98 0.495 1.98 0.495 4 1 C3.67 1.99 3.34 2.98 3 4 C1.68 3.67 0.36 3.34 -1 3 C-0.67 2.01 -0.34 1.02 0 0 Z " fill="#E5732D" transform="translate(79,37)"/>
<path d="M0 0 C0.99 0.33 1.98 0.66 3 1 C3 1.99 3 2.98 3 4 C1.68 4 0.36 4 -1 4 C-0.67 2.68 -0.34 1.36 0 0 Z " fill="#DE7539" transform="translate(42,47)"/>
<path d="M0 0 C1.32 0.33 2.64 0.66 4 1 C3.67 1.99 3.34 2.98 3 4 C2.01 3.67 1.02 3.34 0 3 C0 2.01 0 1.02 0 0 Z " fill="#DA7836" transform="translate(35,54)"/>
<path d="M0 0 C0.99 0 1.98 0 3 0 C3 1.32 3 2.64 3 4 C2.01 4 1.02 4 0 4 C0 2.68 0 1.36 0 0 Z " fill="#DA712F" transform="translate(41,53)"/>
<path d="M0 0 C1.32 0 2.64 0 4 0 C4 0.99 4 1.98 4 3 C2.68 2.67 1.36 2.34 0 2 C0 1.34 0 0.68 0 0 Z " fill="#DD7535" transform="translate(36,45)"/>
<path d="M0 0 C1.32 0.33 2.64 0.66 4 1 C3.67 1.66 3.34 2.32 3 3 C2.01 3 1.02 3 0 3 C0 2.01 0 1.02 0 0 Z " fill="#E06D2C" transform="translate(33,49)"/>
</svg>
